PathFileType	4	(X/Y/Z)	/Users/niels/Desktop/University/Third Semester/Perception and Action/Exam/Gymnastics Motion Tracking/Code for Gym Tracking/Analyzed Data/Webcam_Backflip/id7_2_baseline_Sports2D/id7_2_baseline_Sports2D_px_person00.trc
DataRate	CameraRate	NumFrames	NumMarkers	Units	OrigDataRate	OrigDataStartFrame	OrigNumFrames
29.808917197452228	29.808917197452228	11	22	m	29.808917197452228	78	157
Frame#	Time	Hip			RHip			RKnee			RAnkle			RBigToe			RSmallToe			RHeel			LHip			LKnee			LAnkle			LBigToe			LSmallToe			LHeel			Neck			Head			Nose			RShoulder			RElbow			RWrist			LShoulder			LElbow			LWrist		
		X1	Y1	Z1	X2	Y2	Z2	X3	Y3	Z3	X4	Y4	Z4	X5	Y5	Z5	X6	Y6	Z6	X7	Y7	Z7	X8	Y8	Z8	X9	Y9	Z9	X10	Y10	Z10	X11	Y11	Z11	X12	Y12	Z12	X13	Y13	Z13	X14	Y14	Z14	X15	Y15	Z15	X16	Y16	Z16	X17	Y17	Z17	X18	Y18	Z18	X19	Y19	Z19	X20	Y20	Z20	X21	Y21	Z21	X22	Y22	Z22
78	2.6166666666666667	0.8725149962737105	-0.525796360814371	0.0	0.8715003393579426	-0.5243784575601312	0.0	0.8806516547678717	-0.6377064498946269	0.0	0.8854241128802983	-0.7459176457440436	0.0	0.9284557610813738	-0.7677583293651185	0.0	0.923881835075051	-0.7714333213531821	0.0	0.8801318334253448	-0.764741695977303	0.0	0.8715478101134014	-0.521691919884429	0.0	0.8822984747037982	-0.6371016381594323	0.0	0.8889132247060764	-0.7417820150487217	0.0	0.928887612787849	-0.7630072212667232	0.0	0.9263313502022564	-0.7603992491945868	0.0	0.8781188791715392	-0.7570596359020649	0.0	0.9143598530177329	-0.39273515357404576	0.0	0.9173984377595547	-0.3185567236250458	0.0	0.9326099832655358	-0.35003474728891915	0.0	0.9159213799766581	-0.39520808458928686	0.0	0.9609445836001868	-0.34199184066099714	0.0	0.9835074367775308	-0.2844919290345777	0.0	0.912216335213282	-0.39255766139015097	0.0	0.9647017921449442	-0.3424210312421144	0.0	0.9908315416799304	-0.29253100819148803	0.0
79	2.650213675213675	0.8749302028745181	-0.545484526584081	0.0	0.8738143280827158	-0.5436737071411906	0.0	0.8812157892747257	-0.6565167200910904	0.0	0.8823908159825689	-0.7632486159246212	0.0	0.924282134975968	-0.7834148041368794	0.0	0.9198666762050145	-0.7874840752584297	0.0	0.8762325187410491	-0.7814993230970333	0.0	0.8747016563771091	-0.5415171055245337	0.0	0.8835761857351548	-0.655675061742365	0.0	0.8867422227720736	-0.7590904538471439	0.0	0.9268001951534974	-0.7790840521126435	0.0	0.9240846071840906	-0.7762578229976929	0.0	0.8752190177155366	-0.7739953582292812	0.0	0.9121397936251205	-0.40923953594342904	0.0	0.9069571368540137	-0.3351846001995275	0.0	0.9270463375058341	-0.36501358505528314	0.0	0.914232755038072	-0.41107117645846714	0.0	0.9573417564366667	-0.3533283123582023	0.0	0.9773879649034364	-0.2942304644855379	0.0	0.9092436944659296	-0.4086868277200945	0.0	0.9574105326414319	-0.35531376466252507	0.0	0.980475450103023	-0.3035479099134984	0.0
80	2.6837606837606836	0.877850351663868	-0.5667179166918914	0.0	0.8769835913537363	-0.564592511315591	0.0	0.8828317841826162	-0.6766723529291147	0.0	0.8803158815794022	-0.7819678216890833	0.0	0.9199319677591729	-0.8008139372525106	0.0	0.915378898103649	-0.8053675715034381	0.0	0.8734212615847374	-0.7991685863609441	0.0	0.8778399254548657	-0.5626472462917997	0.0	0.8849266890489272	-0.6757236150910151	0.0	0.8841033932119574	-0.7776757819708416	0.0	0.9237593994224513	-0.7967215968640053	0.0	0.920158884264882	-0.7938803545427102	0.0	0.872090587537912	-0.7919761465607836	0.0	0.9094131029023879	-0.4272317270638724	0.0	0.8993846128324364	-0.3539484348061795	0.0	0.9222349010641205	-0.3821177279279374	0.0	0.9114741353523572	-0.4280575475273591	0.0	0.952640032398135	-0.36654316970865775	0.0	0.9702611186621412	-0.30599463722278003	0.0	0.9054006877547432	-0.42638094200506965	0.0	0.9485895665863203	-0.37099701863132883	0.0	0.9685832520399431	-0.3180754230287569	0.0
81	2.7173076923076924	0.8809288722866703	-0.5875801241243523	0.0	0.8807172784645142	-0.5854402956228062	0.0	0.8851805897206718	-0.6965397305208015	0.0	0.8792575501857557	-0.8004935924418072	0.0	0.9157607843580564	-0.8181760485506403	0.0	0.910923603899842	-0.8233160398922945	0.0	0.8716551432868919	-0.8164329895360277	0.0	0.8805580079783426	-0.5832434264600816	0.0	0.8862391426006101	-0.6955860485458187	0.0	0.8815622419239417	-0.7959611780499342	0.0	0.9203274523128026	-0.8142307903084088	0.0	0.9153802975736429	-0.811737017441937	0.0	0.8691962590364845	-0.8097316337644013	0.0	0.9063781473901632	-0.4453856408104787	0.0	0.8953837592991739	-0.3731336985485207	0.0	0.9186503551689917	-0.4002831505636402	0.0	0.908014004063021	-0.44529467739257184	0.0	0.9470219568151629	-0.3808235901219508	0.0	0.9620135560336139	-0.3187517491928583	0.0	0.9009009717130662	-0.4442908135026304	0.0	0.9391652047348272	-0.38763409226159035	0.0	0.9558305714708036	-0.33367956390034	0.0
82	2.750854700854701	0.8838828412208927	-0.6058475160709815	0.0	0.8846832889711306	-0.6040711641823249	0.0	0.8877373120916028	-0.7141788197438383	0.0	0.8788095773068582	-0.8168928917369155	0.0	0.9119514137955582	-0.8335700023658928	0.0	0.9068692763669771	-0.8392965445088787	0.0	0.870490124242046	-0.8316545247423454	0.0	0.8826462713121962	-0.6012336830754309	0.0	0.8872572160474317	-0.7132894891505415	0.0	0.8792834692950711	-0.8120862244275018	0.0	0.916771076447698	-0.8297645408723784	0.0	0.9104417737708482	-0.8279710338328125	0.0	0.8666072511351225	-0.8256060002835931	0.0	0.9032850573097606	-0.46177766154941524	0.0	0.8949155984230632	-0.3902647173308404	0.0	0.9165025744504661	-0.4175544883648007	0.0	0.9043200093417432	-0.4612823797930665	0.0	0.9409331999959731	-0.3946665149836947	0.0	0.9531700548879477	-0.3309963098532299	0.0	0.8962134019357066	-0.46061520693716923	0.0	0.9304384597469139	-0.4029688454751745	0.0	0.9436572865313662	-0.3477392071908547	0.0
83	2.7844017094017093	0.8864887289192355	-0.6194751332902207	0.0	0.8884522280237369	-0.6183326532890951	0.0	0.8899081231255582	-0.7276372172072111	0.0	0.8784329143786569	-0.8292170219586598	0.0	0.9087563654587372	-0.8451606286579865	0.0	0.903549364997692	-0.8513174228916542	0.0	0.8694925268314485	-0.8431363539947487	0.0	0.8841644375976072	-0.6147385356349845	0.0	0.8878374615744827	-0.7268484140109112	0.0	0.877329976058684	-0.8242251765050144	0.0	0.9135695173121143	-0.8414748231387738	0.0	0.9061922600125439	-0.8405205286148351	0.0	0.8643932231884773	-0.8377675062922839	0.0	0.900487046799814	-0.4742855966802757	0.0	0.8972428059479258	-0.40281554502773226	0.0	0.9156638759752531	-0.43150092676415663	0.0	0.9008800397373997	-0.47409210190803075	0.0	0.9350783496225599	-0.4060559929935036	0.0	0.9448097869317622	-0.3409539911165214	0.0	0.8920148516812626	-0.4734123567453084	0.0	0.9235905319756402	-0.41475183181749253	0.0	0.9337729160038756	-0.3580543132288635	0.0
84	2.8179487179487177	0.8885864070196154	-0.6270635507268792	0.0	0.8915567780329114	-0.6265829611657425	0.0	0.8913036447155154	-0.7353044640651504	0.0	0.8778162565582099	-0.835941511380714	0.0	0.9064614519146462	-0.8515171025395437	0.0	0.9011753463495673	-0.8578523130711148	0.0	0.8684999438517311	-0.849497576281217	0.0	0.8854399619557698	-0.6224658964934646	0.0	0.8881214020287224	-0.7346128069950686	0.0	0.8759563484143221	-0.8309391790510635	0.0	0.9114725667749877	-0.8478681268720833	0.0	0.9036018567822666	-0.847536996881479	0.0	0.8628887719936388	-0.844600492632558	0.0	0.898387507833434	-0.481231246466149	0.0	0.9009324434232315	-0.40909279635463974	0.0	0.9157054006104742	-0.43997735388973824	0.0	0.8980743045761349	-0.4819433124507269	0.0	0.9301723855024397	-0.4130914635489072	0.0	0.9380762135357548	-0.34700854318152946	0.0	0.8890896366724651	-0.4810805184165863	0.0	0.9193619420886431	-0.4213230859175877	0.0	0.9273801157274583	-0.36326073444166374	0.0
85	2.8514957264957266	0.8900940419379384	-0.6280324021616681	0.0	0.8936792144634376	-0.6280162832383703	0.0	0.8918784916349362	-0.7362886182167548	0.0	0.8770216316419319	-0.8363217097796974	0.0	0.9053704379955636	-0.8519057256008372	0.0	0.8999466779785364	-0.8581450308911316	0.0	0.8676577825063948	-0.850010867486909	0.0	0.8868262526728942	-0.6238544269504295	0.0	0.888360618861612	-0.7356522675039384	0.0	0.8755104742268938	-0.8314387471996989	0.0	0.9111344819675439	-0.8481611760015003	0.0	0.9034085052012581	-0.8478874393769374	0.0	0.8625242655338771	-0.8451434541145316	0.0	0.8972080910492538	-0.4817804641441564	0.0	0.9043037455644948	-0.4086103375168039	0.0	0.9160817350094478	-0.44170993806499853	0.0	0.8960943920046487	-0.483733643800926	0.0	0.9266643819320654	-0.4146178303068957	0.0	0.9337640182822332	-0.3481878010066674	0.0	0.8879096758927015	-0.4826996941912362	0.0	0.9178898159146237	-0.42198263592150925	0.0	0.9247588195335572	-0.36301131952711485	0.0
86	2.885042735042735	0.8910045838946046	-0.6225048098433796	0.0	0.8947389808431964	-0.6226683165943353	0.0	0.8918227225701926	-0.7305531863457255	0.0	0.8763075891694557	-0.8304311940157413	0.0	0.9057324898104633	-0.8463256656757003	0.0	0.900096106839253	-0.852197035732996	0.0	0.8671927944436684	-0.844662069897193	0.0	0.8884232848144169	-0.618984563630119	0.0	0.8887103985537308	-0.7299193453090613	0.0	0.8761720140511331	-0.825605420336972	0.0	0.9128012199214576	-0.8422514215706045	0.0	0.9058115235831607	-0.8412832572482435	0.0	0.8635026700748923	-0.839240227116638	0.0	0.8968372997595393	-0.4759553633570877	0.0	0.9063110909878491	-0.4018597294815606	0.0	0.9164179763876101	-0.4365724511562477	0.0	0.8949577429568625	-0.47928344864366756	0.0	0.9246076733546373	-0.4105506585086343	0.0	0.9321388326566331	-0.34456788217530354	0.0	0.888225959238701	-0.4781766400932234	0.0	0.9186394463760322	-0.41705874577288415	0.0	0.9253963183040947	-0.3580325018116127	0.0
87	2.9185897435897434	0.8913672000322607	-0.6112202092184587	0.0	0.894849436478027	-0.6113329268010943	0.0	0.8913954235580488	-0.7189152664839923	0.0	0.8758881236119299	-0.8191157302409176	0.0	0.9074716986324395	-0.8355051421139027	0.0	0.9015696044524716	-0.8407967066979677	0.0	0.8671851141772576	-0.8341432360097842	0.0	0.8900135951891276	-0.6085001791504182	0.0	0.8892237974068119	-0.7182392585573469	0.0	0.8778335490391153	-0.8140592947378947	0.0	0.9160999325577511	-0.8307394359122822	0.0	0.9102442810597345	-0.8284256199944684	0.0	0.8656670072228864	-0.8275822335851937	0.0	0.8969185947666082	-0.46456042608651665	0.0	0.9069345426800364	-0.39000074414858377	0.0	0.916637567673868	-0.42556347453581034	0.0	0.8945674287730198	-0.4693174117297142	0.0	0.9237053390224707	-0.4018528532960884	0.0	0.9329065710925928	-0.3373503097370454	0.0	0.8891526269588987	-0.46824630934441536	0.0	0.9204837047222031	-0.4078204864284156	0.0	0.9282647900946855	-0.34999363844444914	0.0
88	2.952136752136752	0.8912836323115307	-0.5955161071995047	0.0	0.8942333519952558	-0.5954694621225357	0.0	0.8908421412785544	-0.7029493749331001	0.0	0.8758936548870946	-0.8039103489406743	0.0	0.9101026197868258	-0.8209126914577802	0.0	0.9038475859196754	-0.8255653280715793	0.0	0.8675890844914675	-0.8198015422894851	0.0	0.8912648888118255	-0.5935910709592681	0.0	0.8899602593211959	-0.7021931457103732	0.0	0.8802363840838959	-0.7982279826912981	0.0	0.9201379277280071	-0.815074399421871	0.0	0.9155377336847346	-0.8111453813735391	0.0	0.8686875280153658	-0.8116833693197091	0.0	0.8970864896490555	-0.4490237848019224	0.0	0.9067868382271445	-0.374621437461483	0.0	0.9168508991399785	-0.41042980281570196	0.0	0.894764576842222	-0.4551991841879321	0.0	0.9234623619328112	-0.39019905196921156	0.0	0.9352292398927375	-0.3284910091742103	0.0	0.8897532123086485	-0.4542332151437078	0.0	0.9220214101847221	-0.3962226283302263	0.0	0.9320541117239151	-0.3410131061445012	0.0
